<mxfile host="Electron" modified="2023-09-17T08:45:00.662Z" agent="Mozilla/5.0 (Windows NT 10.0; Win64; x64) AppleWebKit/537.36 (KHTML, like Gecko) draw.io/21.4.0 Chrome/112.0.5615.204 Electron/24.5.1 Safari/537.36" etag="IgdzLpTv5ovLGOz-dwkg" version="21.4.0" type="device">
  <diagram name="Page-1" id="-rwXF4MAfiNaSpwIAwEC">
    <mxGraphModel dx="863" dy="505" grid="1" gridSize="10" guides="1" tooltips="1" connect="1" arrows="1" fold="1" page="1" pageScale="1" pageWidth="850" pageHeight="1100" math="0" shadow="0">
      <root>
        <mxCell id="0" />
        <mxCell id="1" parent="0" />
        <mxCell id="TPIRKc2NeO6J7MrL7H3M-2" value="" style="rounded=0;whiteSpace=wrap;html=1;fillColor=none;" parent="1" vertex="1">
          <mxGeometry x="160" y="120" width="560" height="320" as="geometry" />
        </mxCell>
        <mxCell id="TPIRKc2NeO6J7MrL7H3M-3" value="&lt;font style=&quot;font-size: 15px;&quot;&gt;ADMIN CONTROL PAGE&lt;/font&gt;" style="rounded=0;whiteSpace=wrap;html=1;fillColor=#0050ef;fontColor=#ffffff;strokeColor=#001DBC;" parent="1" vertex="1">
          <mxGeometry x="160" y="90" width="560" height="30" as="geometry" />
        </mxCell>
        <mxCell id="TPIRKc2NeO6J7MrL7H3M-4" value="X" style="rounded=0;whiteSpace=wrap;html=1;fillColor=#e51400;fontColor=#ffffff;strokeColor=#B20000;" parent="1" vertex="1">
          <mxGeometry x="680" y="90" width="40" height="30" as="geometry" />
        </mxCell>
        <mxCell id="TPIRKc2NeO6J7MrL7H3M-5" value="HEADER" style="rounded=0;whiteSpace=wrap;html=1;fontSize=15;" parent="1" vertex="1">
          <mxGeometry x="170" y="130" width="540" height="30" as="geometry" />
        </mxCell>
        <mxCell id="TPIRKc2NeO6J7MrL7H3M-6" value="FOOTER" style="rounded=0;whiteSpace=wrap;html=1;fontSize=15;" parent="1" vertex="1">
          <mxGeometry x="170" y="400" width="540" height="30" as="geometry" />
        </mxCell>
        <mxCell id="Fe3ZGnqYCwycKdOytdcF-1" value="MENU LEFT" style="rounded=0;whiteSpace=wrap;html=1;fontSize=15;" parent="1" vertex="1">
          <mxGeometry x="170" y="175" width="70" height="210" as="geometry" />
        </mxCell>
        <mxCell id="Fe3ZGnqYCwycKdOytdcF-2" value="DETAIL 1" style="rounded=0;whiteSpace=wrap;html=1;fontSize=15;" parent="1" vertex="1">
          <mxGeometry x="290" y="190" width="80" height="40" as="geometry" />
        </mxCell>
        <mxCell id="Fe3ZGnqYCwycKdOytdcF-3" value="DETAIL 2" style="rounded=0;whiteSpace=wrap;html=1;fontSize=15;" parent="1" vertex="1">
          <mxGeometry x="440" y="190" width="80" height="40" as="geometry" />
        </mxCell>
        <mxCell id="Fe3ZGnqYCwycKdOytdcF-4" value="DETAIL 3" style="rounded=0;whiteSpace=wrap;html=1;fontSize=15;" parent="1" vertex="1">
          <mxGeometry x="600" y="190" width="80" height="40" as="geometry" />
        </mxCell>
        <mxCell id="Fe3ZGnqYCwycKdOytdcF-5" value="STATUS PANEL" style="rounded=0;whiteSpace=wrap;html=1;fontSize=15;" parent="1" vertex="1">
          <mxGeometry x="300" y="260" width="180" height="110" as="geometry" />
        </mxCell>
        <mxCell id="Fe3ZGnqYCwycKdOytdcF-6" value="CHART" style="rounded=0;whiteSpace=wrap;html=1;fontSize=15;" parent="1" vertex="1">
          <mxGeometry x="550" y="260" width="120" height="110" as="geometry" />
        </mxCell>
      </root>
    </mxGraphModel>
  </diagram>
</mxfile>
